<svg width="107" height="116" viewBox="0 0 107 116" fill="none" xmlns="http://www.w3.org/2000/svg">
<circle cx="52" cy="52" r="52" fill="#D9D9D9"/>
<path d="M21 84.3659C21 82.8212 21.6177 78.9287 22.112 77.2604C22.1738 77.0133 22.3589 76.5191 22.4825 76.0866C22.7297 75.3451 23.2243 73.9856 23.4715 73.4296C24.5836 71.0199 25.819 68.8575 27.1165 67.0657C27.549 66.4478 27.9815 65.8917 28.0433 65.83C28.1051 65.7682 28.4757 65.3357 28.8464 64.9032C29.6496 63.9764 30.7618 62.8643 31.6268 62.1846C31.9357 61.9375 32.245 61.6903 32.3068 61.5667C32.3686 61.505 32.6773 61.2579 32.9862 61.0107C33.2951 60.7636 33.5423 60.578 33.6041 60.5163C33.7894 60.3309 35.7667 59.0334 35.8903 59.0334C35.9521 59.0334 36.014 58.9716 36.014 58.9716C36.0758 58.7862 38.6704 57.4269 40.2769 56.8091C40.4005 56.7473 40.6476 56.6238 40.8947 56.562C41.1419 56.4384 41.389 56.3768 41.5126 56.3768C41.6362 56.3768 41.6982 56.3149 41.76 56.3149C41.8218 56.3149 42.1308 56.1295 42.5016 56.006C42.8723 55.8824 43.3667 55.7588 43.552 55.697C44.8496 55.2645 47.0734 54.8319 48.927 54.6465C50.2863 54.523 53.9322 54.523 55.2915 54.6465C57.2068 54.8319 59.3689 55.2645 60.6664 55.697C60.8518 55.7588 61.3462 55.8824 61.7169 56.006C62.0876 56.1295 62.4584 56.2531 62.4584 56.3149C62.4584 56.3767 62.5823 56.3768 62.7058 56.3768C62.8294 56.3768 63.0765 56.4384 63.3237 56.562C63.5708 56.6856 63.818 56.8091 63.9416 56.8091C65.4862 57.4887 68.1427 58.7862 68.2045 58.9716C68.2045 59.0334 68.2664 59.0334 68.3282 59.0334C68.4517 59.0334 70.3672 60.3309 70.6144 60.5163C70.6762 60.578 70.9851 60.7636 71.2322 61.0107C71.5412 61.1961 71.8499 61.4432 71.9116 61.5667C71.9734 61.6285 72.2827 61.9375 72.5917 62.1846C73.4567 62.9261 74.5688 64.0381 75.372 64.9032C75.8046 65.3974 76.1751 65.7682 76.1751 65.83C76.1751 65.8917 76.6694 66.4478 77.1019 67.0657C78.3995 68.8575 79.6348 70.9581 80.747 73.4296C80.9941 73.9856 81.4888 75.3451 81.7359 76.0866C81.8595 76.5191 82.0446 77.0133 82.1064 77.2604C82.6007 78.9287 83.2184 82.8212 83.2184 84.3659V84.6748H52.14H21.0615V84.3659H21ZM50.3485 50.0744C46.8885 49.7037 43.7992 48.159 41.3895 45.7494C39.1652 43.5251 37.8054 40.9919 37.1876 37.8408C36.8786 36.4197 36.8786 33.7627 37.1876 32.3416C37.8054 29.1905 39.1652 26.6574 41.3895 24.4331C43.6138 22.2087 46.1469 20.8496 49.2981 20.2317C50.7191 19.9228 53.3756 19.9228 54.7967 20.2317C57.9478 20.8496 60.4815 22.2087 62.7058 24.4331C64.9301 26.6574 66.2893 29.1905 66.9072 32.3416C67.2161 33.7627 67.2161 36.4197 66.9072 37.8408C66.2893 40.9919 64.9301 43.5251 62.7058 45.7494C60.4815 47.9737 57.8864 49.3329 54.8588 49.9507C53.7467 50.1361 51.3989 50.198 50.3485 50.0744Z" fill="#2E2E2E" fill-opacity="0.2"/>
<g filter="url(#filter0_d_8_369)">
<circle cx="87.5" cy="92.5" r="11.5" fill="white" fill-opacity="0.82" shape-rendering="crispEdges"/>
<circle cx="87.5" cy="92.5" r="11.1034" stroke="#F31D28" stroke-width="0.793103" shape-rendering="crispEdges"/>
</g>
<path d="M88.845 87.2255C89.2674 86.7008 89.4787 86.4384 89.7031 86.2853C90.2447 85.916 90.9116 85.9045 91.4623 86.255C91.6905 86.4003 91.9082 86.6553 92.3437 87.1653C92.7791 87.6753 92.9969 87.9303 93.1209 88.1976C93.4202 88.8425 93.4103 89.6236 93.095 90.258C92.9643 90.5209 92.7403 90.7683 92.2922 91.2631L86.961 97.1503C86.1119 98.088 85.6873 98.5568 85.1567 98.7944C84.6261 99.032 84.0428 99.0146 82.8761 98.9796L82.7174 98.9748C82.3622 98.9642 82.1846 98.9588 82.0814 98.8245C81.9782 98.6902 81.9923 98.4828 82.0205 98.068L82.0358 97.8428C82.1151 96.6753 82.1548 96.0916 82.3536 95.5668C82.5524 95.0421 82.8954 94.6161 83.5814 93.7639L88.845 87.2255Z" fill="white" fill-opacity="0.82" stroke="#F31D28" stroke-width="0.793103" stroke-linejoin="round"/>
<path d="M88.2358 87.3003L92.2044 91.8503" stroke="#F31D28" stroke-width="0.793103" stroke-linejoin="round"/>
<path d="M88.8035 99L93.3389 99" stroke="#F31D28" stroke-width="0.793103" stroke-linecap="round" stroke-linejoin="round"/>
<defs>
<filter id="filter0_d_8_369" x="68.069" y="76.2414" width="38.8621" height="38.8621" filterUnits="userSpaceOnUse" color-interpolation-filters="sRGB">
<feFlood flood-opacity="0" result="BackgroundImageFix"/>
<feColorMatrix in="SourceAlpha" type="matrix" values="0 0 0 0 0 0 0 0 0 0 0 0 0 0 0 0 0 0 127 0" result="hardAlpha"/>
<feOffset dy="3.17241"/>
<feGaussianBlur stdDeviation="3.96552"/>
<feComposite in2="hardAlpha" operator="out"/>
<feColorMatrix type="matrix" values="0 0 0 0 0 0 0 0 0 0 0 0 0 0 0 0 0 0 0.08 0"/>
<feBlend mode="normal" in2="BackgroundImageFix" result="effect1_dropShadow_8_369"/>
<feBlend mode="normal" in="SourceGraphic" in2="effect1_dropShadow_8_369" result="shape"/>
</filter>
</defs>
</svg>
